<svg width="25" height="24" viewBox="0 0 25 24" fill="none" xmlns="http://www.w3.org/2000/svg">
<path d="M16.7 6.6V5.88C16.7 4.87191 16.7 4.36786 16.5038 3.98282C16.3312 3.64413 16.0559 3.36876 15.7172 3.19619C15.3321 3 14.8281 3 13.82 3H12.38C11.3719 3 10.8679 3 10.4828 3.19619C10.1441 3.36876 9.86876 3.64413 9.69619 3.98282C9.5 4.36786 9.5 4.87191 9.5 5.88V6.6M11.3 11.55V16.05M14.9 11.55V16.05M5 6.6H21.2M19.4 6.6V16.68C19.4 18.1921 19.4 18.9482 19.1057 19.5258C18.8469 20.0338 18.4338 20.4469 17.9258 20.7057C17.3482 21 16.5921 21 15.08 21H11.12C9.60786 21 8.85179 21 8.27423 20.7057C7.76619 20.4469 7.35314 20.0338 7.09428 19.5258C6.8 18.9482 6.8 18.1921 6.8 16.68V6.6" stroke="#FF6D59" stroke-width="1.6" stroke-linecap="round" stroke-linejoin="round"/>
</svg>
